<?xml version="1.0" standalone="no"?>
<!DOCTYPE svg PUBLIC "-//W3C//DTD SVG 20010904//EN"
 "http://www.w3.org/TR/2001/REC-SVG-20010904/DTD/svg10.dtd">
<svg version="1.0" xmlns="http://www.w3.org/2000/svg"
 width="300.000000pt" height="300.000000pt" viewBox="0 0 300.000000 300.000000"
 preserveAspectRatio="xMidYMid meet">
<metadata>
Created by potrace 1.10, written by Peter Selinger 2001-2011
</metadata>
<g transform="translate(0.000000,300.000000) scale(0.100000,-0.100000)"
fill="#000000" stroke="none">
<path d="M1515 2329 c-55 -10 -118 -23 -140 -29 -22 -6 -47 -12 -55 -14 -67
-17 -220 -80 -338 -139 -47 -23 -67 -49 -55 -71 4 -8 43 -42 87 -75 64 -50 81
-59 97 -50 22 11 25 21 6 17 -20 -5 -147 101 -147 123 0 14 26 31 103 68 231
111 475 165 738 163 92 0 110 -19 144 -140 16 -54 16 -65 4 -73 -11 -7 -9 -9
9 -9 12 0 31 -9 41 -19 11 -11 37 -23 58 -26 48 -9 164 -42 180 -53 9 -5 2
-20 -22 -51 -19 -24 -35 -47 -35 -50 0 -3 13 10 28 29 15 19 37 45 50 58 25
26 23 37 -10 45 -13 3 -48 13 -78 21 -56 16 -110 27 -144 30 -15 1 -26 23 -52
106 -26 80 -41 112 -65 133 l-31 28 -136 -2 c-76 -1 -182 -10 -237 -20z"/>
<path d="M1747 2113 c18 -2 50 -2 70 0 21 2 7 4 -32 4 -38 0 -55 -2 -38 -4z"/>
<path d="M2302 2010 c2 -8 11 -17 19 -21 297 -144 394 -208 555 -361 56 -54
104 -98 108 -98 17 0 -93 129 -111 130 -5 1 -19 14 -33 30 -13 17 -27 30 -32
30 -4 0 -18 10 -31 23 -37 35 -66 57 -76 57 -5 0 -11 4 -13 9 -4 11 -148 103
-148 94 0 -3 -9 2 -20 12 -11 10 -20 14 -20 10 0 -4 -8 -1 -18 8 -17 15 -63
37 -91 43 -8 1 -17 7 -20 13 -4 6 -16 12 -26 14 -11 1 -26 6 -34 11 -9 6 -12
5 -9 -4z"/>
<path d="M10 1914 c-19 -50 67 -248 160 -369 22 -29 40 -59 40 -68 0 -9 -20
-45 -46 -79 -64 -88 -109 -171 -139 -261 -24 -73 -25 -80 -10 -103 19 -30 27
-30 123 0 42 14 202 61 355 106 l278 81 67 -49 c126 -92 279 -182 306 -182 24
0 20 -12 -35 -98 -60 -95 -61 -119 -7 -145 63 -31 238 -88 288 -94 55 -6 63
-3 234 106 l123 78 94 7 c107 8 140 12 224 27 72 12 255 67 272 81 7 6 13 8
13 4 0 -3 16 3 35 14 20 11 40 20 46 20 6 0 23 9 37 19 15 10 30 19 35 20 35
4 287 173 287 193 0 4 5 8 11 8 16 0 194 179 186 187 -6 6 -52 -34 -162 -142
-55 -54 -178 -141 -245 -174 -41 -19 -81 -41 -88 -48 -7 -7 -43 -26 -80 -43
-37 -17 -80 -38 -95 -47 -28 -15 -30 -14 -61 16 -28 27 -36 30 -57 22 l-24
-10 27 0 c18 -1 29 -8 33 -22 8 -25 10 -23 -45 -38 -105 -29 -172 -41 -285
-52 -66 -6 -145 -17 -176 -24 -31 -7 -67 -12 -80 -10 -13 1 -16 0 -6 -2 9 -2
17 -7 17 -10 0 -11 -51 -49 -132 -98 -99 -60 -129 -62 -263 -18 -123 42 -165
63 -165 84 0 25 79 149 95 149 23 0 -49 67 -100 94 -67 35 -99 54 -168 101
-33 22 -77 52 -100 67 -23 16 -49 28 -58 28 -9 0 -29 10 -45 22 -19 15 -24 17
-15 5 8 -10 12 -19 10 -20 -20 -13 -76 -32 -199 -68 -80 -23 -178 -52 -218
-66 -40 -14 -88 -26 -106 -28 -18 -1 -42 -7 -52 -13 -10 -5 -40 -13 -67 -17
-54 -8 -57 -2 -31 61 46 113 89 190 162 289 43 60 40 80 -34 190 -62 93 -88
141 -128 239 -31 75 -15 84 89 48 39 -13 84 -25 100 -26 17 -2 51 -11 76 -19
25 -9 108 -34 185 -57 202 -60 204 -60 204 -74 0 -7 -16 -28 -36 -47 -20 -18
-40 -43 -46 -54 -11 -21 -3 -15 87 68 22 21 51 40 65 44 21 5 270 162 308 194
21 17 8 21 -24 7 -33 -14 -191 -117 -247 -161 -33 -25 -41 -28 -65 -19 -15 6
-43 15 -62 21 -33 9 -232 67 -330 96 -25 7 -85 25 -135 38 -50 14 -103 30
-118 36 -48 19 -76 14 -87 -15z"/>
<path d="M2374 1660 c-12 -5 -29 -19 -38 -32 -43 -61 5 -148 82 -148 86 0 125
99 63 161 -30 30 -65 36 -107 19z m92 -56 c20 -30 15 -52 -18 -77 -23 -17 -31
-19 -53 -9 -27 12 -48 53 -39 75 7 20 55 45 76 39 11 -2 26 -15 34 -28z"/>
<path d="M2130 1166 c0 -11 47 -99 64 -121 9 -11 0 12 -20 50 -41 77 -44 82
-44 71z"/>
<path d="M1918 983 c34 -2 90 -2 125 0 34 2 6 3 -63 3 -69 0 -97 -1 -62 -3z"/>
</g>
</svg>
